;TYPE=PLATED
;Layer: PTH_Through
;EasyEDA Pro v3.2.148, 2026-09-07 21:29:23
;Gerber Generator version 0.3
M48
METRIC,LZ,0000.00000
;Hole size 1 = 0.30500 METRIC
T01C0.30500
;Hole size 2 = 0.30500 METRIC
T02C0.30500
;Hole size 3 = 0.60000 METRIC
T03C0.60000
;Hole size 4 = 0.84988 METRIC
T04C0.84988
;Hole size 5 = 0.90002 METRIC
T05C0.90002
%
G05
G90
T01
X21.79315Y-10.35048
X20.26916Y-11.87448
T02
X13.77507Y-3.36609
X47.811Y-45.65601
T03
X7.72201Y-38.08705G85X7.12201Y-38.08705
X14.72199Y-38.08705G85X14.12199Y-38.08705
X9.722Y-33.28695G85X9.122Y-33.28695
T04
X7.493Y-17.52346G85X7.493Y-17.52854
X20.193Y-2.28854G85X20.193Y-2.28346
X17.653Y-2.28854G85X17.653Y-2.28346
X15.113Y-2.28854G85X15.113Y-2.28346
X12.573Y-2.28854G85X12.573Y-2.28346
X10.033Y-2.28854G85X10.033Y-2.28346
X7.493Y-2.28854G85X7.493Y-2.28346
X22.733Y-2.28854G85X22.733Y-2.28346
X10.033Y-17.52346G85X10.033Y-17.52854
X12.573Y-17.52346G85X12.573Y-17.52854
X15.113Y-17.52346G85X15.113Y-17.52854
X17.653Y-17.52346G85X17.653Y-17.52854
X20.193Y-17.52346G85X20.193Y-17.52854
X22.733Y-17.52346G85X22.733Y-17.52854
T05
X33.25401Y-26.035
X30.75399Y-26.035
X33.76198Y-40.73243
X31.26196Y-40.73243
M30