G04 Layer: TopPasteMaskLayer*
G04 EasyEDA Pro v3.2.148, 2026-09-07 21:29:23*
G04 Gerber Generator version 0.3*
G04 Scale: 100 percent, Rotated: No, Reflected: No*
G04 Dimensions in millimeters*
G04 Leading zeros omitted, absolute positions, 4 integers and 5 decimals*
G04 Generated by one-click*
G04 Object Configs: Pad,Via,Track,Text,Image,Dimension,BoardOutline,BoardCutout,CopperFilled,SolidRegion,FPCStiffener,Line,PlaneZone,ComponentProperty,ComponentSilkscreen,TearDrop*
G04 Layer Configs: 1,2,3,4,5,6,7,8,9,10,11,13,14,56*
G04 Copper Areas: 0*
%FSLAX45Y45*%
%MOMM*%
%ADD10R,2.0X1.2*%
%ADD11R,0.4X1.2*%
%ADD12C,0.3868*%
G75*


G04 Pad Start*
G54D10*
G01X5477998Y-5022799D03*
G01X5477998Y-4822800D03*
G01X5477998Y-4622800D03*
G01X5477998Y-4422800D03*
G01X5477998Y-4222801D03*
G01X4428000Y-4222803D03*
G01X4428000Y-4422803D03*
G01X4428000Y-4622803D03*
G01X4428000Y-4822802D03*
G01X4428000Y-5022802D03*
G36*
G01X730250Y-1104900D02*
G01X729844Y-1111783D01*
G01X728599Y-1118565D01*
G01X726542Y-1125169D01*
G01X723697Y-1131468D01*
G01X720141Y-1137361D01*
G01X715874Y-1142797D01*
G01X710997Y-1147674D01*
G01X705561Y-1151941D01*
G01X699668Y-1155497D01*
G01X693369Y-1158342D01*
G01X686765Y-1160399D01*
G01X679983Y-1161644D01*
G01X673100Y-1162050D01*
G01X666217Y-1161644D01*
G01X659409Y-1160399D01*
G01X652831Y-1158342D01*
G01X646532Y-1155497D01*
G01X640639Y-1151941D01*
G01X635203Y-1147674D01*
G01X630326Y-1142797D01*
G01X626059Y-1137361D01*
G01X622503Y-1131468D01*
G01X619658Y-1125169D01*
G01X617601Y-1118565D01*
G01X616356Y-1111783D01*
G01X615950Y-1104900D01*
G01X616356Y-1098017D01*
G01X617601Y-1091235D01*
G01X619658Y-1084631D01*
G01X622503Y-1078332D01*
G01X626059Y-1072439D01*
G01X630326Y-1067003D01*
G01X635203Y-1062126D01*
G01X640639Y-1057859D01*
G01X646532Y-1054303D01*
G01X652831Y-1051458D01*
G01X659409Y-1049401D01*
G01X666217Y-1048156D01*
G01X673100Y-1047750D01*
G01X679983Y-1048156D01*
G01X686765Y-1049401D01*
G01X693369Y-1051458D01*
G01X699668Y-1054303D01*
G01X705561Y-1057859D01*
G01X710997Y-1062126D01*
G01X715874Y-1067003D01*
G01X720141Y-1072439D01*
G01X723697Y-1078332D01*
G01X726542Y-1084631D01*
G01X728599Y-1091235D01*
G01X729844Y-1098017D01*
G01X730250Y-1104900D01*
G37*
G36*
G01X984250Y-1104900D02*
G01X983844Y-1111783D01*
G01X982599Y-1118565D01*
G01X980542Y-1125169D01*
G01X977697Y-1131468D01*
G01X974141Y-1137361D01*
G01X969874Y-1142797D01*
G01X964997Y-1147674D01*
G01X959561Y-1151941D01*
G01X953668Y-1155497D01*
G01X947369Y-1158342D01*
G01X940765Y-1160399D01*
G01X933983Y-1161644D01*
G01X927100Y-1162050D01*
G01X920217Y-1161644D01*
G01X913409Y-1160399D01*
G01X906831Y-1158342D01*
G01X900532Y-1155497D01*
G01X894639Y-1151941D01*
G01X889203Y-1147674D01*
G01X884326Y-1142797D01*
G01X880059Y-1137361D01*
G01X876503Y-1131468D01*
G01X873658Y-1125169D01*
G01X871601Y-1118565D01*
G01X870356Y-1111783D01*
G01X869950Y-1104900D01*
G01X870356Y-1098017D01*
G01X871601Y-1091235D01*
G01X873658Y-1084631D01*
G01X876503Y-1078332D01*
G01X880059Y-1072439D01*
G01X884326Y-1067003D01*
G01X889203Y-1062126D01*
G01X894639Y-1057859D01*
G01X900532Y-1054303D01*
G01X906831Y-1051458D01*
G01X913409Y-1049401D01*
G01X920217Y-1048156D01*
G01X927100Y-1047750D01*
G01X933983Y-1048156D01*
G01X940765Y-1049401D01*
G01X947369Y-1051458D01*
G01X953668Y-1054303D01*
G01X959561Y-1057859D01*
G01X964997Y-1062126D01*
G01X969874Y-1067003D01*
G01X974141Y-1072439D01*
G01X977697Y-1078332D01*
G01X980542Y-1084631D01*
G01X982599Y-1091235D01*
G01X983844Y-1098017D01*
G01X984250Y-1104900D01*
G37*
G36*
G01X984250Y-850900D02*
G01X983844Y-857783D01*
G01X982599Y-864565D01*
G01X980542Y-871169D01*
G01X977697Y-877468D01*
G01X974141Y-883361D01*
G01X969874Y-888797D01*
G01X964997Y-893674D01*
G01X959561Y-897941D01*
G01X953668Y-901497D01*
G01X947369Y-904342D01*
G01X940765Y-906399D01*
G01X933983Y-907644D01*
G01X927100Y-908050D01*
G01X920217Y-907644D01*
G01X913409Y-906399D01*
G01X906831Y-904342D01*
G01X900532Y-901497D01*
G01X894639Y-897941D01*
G01X889203Y-893674D01*
G01X884326Y-888797D01*
G01X880059Y-883361D01*
G01X876503Y-877468D01*
G01X873658Y-871169D01*
G01X871601Y-864565D01*
G01X870356Y-857783D01*
G01X869950Y-850900D01*
G01X870356Y-844017D01*
G01X871601Y-837235D01*
G01X873658Y-830631D01*
G01X876503Y-824332D01*
G01X880059Y-818439D01*
G01X884326Y-813003D01*
G01X889203Y-808126D01*
G01X894639Y-803859D01*
G01X900532Y-800303D01*
G01X906831Y-797458D01*
G01X913409Y-795401D01*
G01X920217Y-794156D01*
G01X927100Y-793750D01*
G01X933983Y-794156D01*
G01X940765Y-795401D01*
G01X947369Y-797458D01*
G01X953668Y-800303D01*
G01X959561Y-803859D01*
G01X964997Y-808126D01*
G01X969874Y-813003D01*
G01X974141Y-818439D01*
G01X977697Y-824332D01*
G01X980542Y-830631D01*
G01X982599Y-837235D01*
G01X983844Y-844017D01*
G01X984250Y-850900D01*
G37*
G36*
G01X730250Y-850900D02*
G01X729844Y-857783D01*
G01X728599Y-864565D01*
G01X726542Y-871169D01*
G01X723697Y-877468D01*
G01X720141Y-883361D01*
G01X715874Y-888797D01*
G01X710997Y-893674D01*
G01X705561Y-897941D01*
G01X699668Y-901497D01*
G01X693369Y-904342D01*
G01X686765Y-906399D01*
G01X679983Y-907644D01*
G01X673100Y-908050D01*
G01X666217Y-907644D01*
G01X659409Y-906399D01*
G01X652831Y-904342D01*
G01X646532Y-901497D01*
G01X640639Y-897941D01*
G01X635203Y-893674D01*
G01X630326Y-888797D01*
G01X626059Y-883361D01*
G01X622503Y-877468D01*
G01X619658Y-871169D01*
G01X617601Y-864565D01*
G01X616356Y-857783D01*
G01X615950Y-850900D01*
G01X616356Y-844017D01*
G01X617601Y-837235D01*
G01X619658Y-830631D01*
G01X622503Y-824332D01*
G01X626059Y-818439D01*
G01X630326Y-813003D01*
G01X635203Y-808126D01*
G01X640639Y-803859D01*
G01X646532Y-800303D01*
G01X652831Y-797458D01*
G01X659409Y-795401D01*
G01X666217Y-794156D01*
G01X673100Y-793750D01*
G01X679983Y-794156D01*
G01X686765Y-795401D01*
G01X693369Y-797458D01*
G01X699668Y-800303D01*
G01X705561Y-803859D01*
G01X710997Y-808126D01*
G01X715874Y-813003D01*
G01X720141Y-818439D01*
G01X723697Y-824332D01*
G01X726542Y-830631D01*
G01X728599Y-837235D01*
G01X729844Y-844017D01*
G01X730250Y-850900D01*
G37*
G36*
G01X2471420Y-882650D02*
G01X2471242Y-885723D01*
G01X2470683Y-888721D01*
G01X2469769Y-891667D01*
G01X2468499Y-894461D01*
G01X2466924Y-897077D01*
G01X2465019Y-899490D01*
G01X2462860Y-901675D01*
G01X2460447Y-903554D01*
G01X2457831Y-905129D01*
G01X2455037Y-906399D01*
G01X2452091Y-907313D01*
G01X2449068Y-907872D01*
G01X2446020Y-908050D01*
G01X2293620Y-908050D01*
G01X2290547Y-907872D01*
G01X2287549Y-907313D01*
G01X2284603Y-906399D01*
G01X2281809Y-905129D01*
G01X2279193Y-903554D01*
G01X2276780Y-901675D01*
G01X2274595Y-899490D01*
G01X2272716Y-897077D01*
G01X2271116Y-894461D01*
G01X2269871Y-891667D01*
G01X2268957Y-888721D01*
G01X2268398Y-885723D01*
G01X2268220Y-882650D01*
G01X2268220Y-831850D01*
G01X2268398Y-828777D01*
G01X2268957Y-825779D01*
G01X2269871Y-822833D01*
G01X2271116Y-820039D01*
G01X2272716Y-817423D01*
G01X2274595Y-815010D01*
G01X2276780Y-812851D01*
G01X2279193Y-810946D01*
G01X2281809Y-809371D01*
G01X2284603Y-808101D01*
G01X2287549Y-807187D01*
G01X2290547Y-806628D01*
G01X2293620Y-806450D01*
G01X2446020Y-806450D01*
G01X2449068Y-806628D01*
G01X2452091Y-807187D01*
G01X2455037Y-808101D01*
G01X2457831Y-809371D01*
G01X2460447Y-810946D01*
G01X2462860Y-812851D01*
G01X2465019Y-815010D01*
G01X2466924Y-817423D01*
G01X2468499Y-820039D01*
G01X2469769Y-822833D01*
G01X2470683Y-825779D01*
G01X2471242Y-828777D01*
G01X2471420Y-831850D01*
G01X2471420Y-882650D01*
G37*
G36*
G01X2268220Y-1085850D02*
G01X2268398Y-1082777D01*
G01X2268957Y-1079779D01*
G01X2269871Y-1076833D01*
G01X2271116Y-1074039D01*
G01X2272716Y-1071423D01*
G01X2274595Y-1069010D01*
G01X2276780Y-1066825D01*
G01X2279193Y-1064946D01*
G01X2281809Y-1063371D01*
G01X2284603Y-1062101D01*
G01X2287549Y-1061187D01*
G01X2290547Y-1060628D01*
G01X2293620Y-1060450D01*
G01X2446020Y-1060450D01*
G01X2449068Y-1060628D01*
G01X2452091Y-1061187D01*
G01X2455037Y-1062101D01*
G01X2457831Y-1063371D01*
G01X2460447Y-1064946D01*
G01X2462860Y-1066825D01*
G01X2465019Y-1069010D01*
G01X2466924Y-1071423D01*
G01X2468499Y-1074039D01*
G01X2469769Y-1076833D01*
G01X2470683Y-1079779D01*
G01X2471242Y-1082777D01*
G01X2471420Y-1085850D01*
G01X2471420Y-1136650D01*
G01X2471242Y-1139723D01*
G01X2470683Y-1142721D01*
G01X2469769Y-1145667D01*
G01X2468499Y-1148461D01*
G01X2466924Y-1151077D01*
G01X2465019Y-1153490D01*
G01X2462860Y-1155649D01*
G01X2460447Y-1157554D01*
G01X2457831Y-1159129D01*
G01X2455037Y-1160399D01*
G01X2452091Y-1161313D01*
G01X2449068Y-1161872D01*
G01X2446020Y-1162050D01*
G01X2293620Y-1162050D01*
G01X2290547Y-1161872D01*
G01X2287549Y-1161313D01*
G01X2284603Y-1160399D01*
G01X2281809Y-1159129D01*
G01X2279193Y-1157554D01*
G01X2276780Y-1155649D01*
G01X2274595Y-1153490D01*
G01X2272716Y-1151077D01*
G01X2271116Y-1148461D01*
G01X2269871Y-1145667D01*
G01X2268957Y-1142721D01*
G01X2268398Y-1139723D01*
G01X2268220Y-1136650D01*
G01X2268220Y-1085850D01*
G37*
G54D11*
G01X4575508Y-2843143D03*
G01X4640508Y-2843143D03*
G01X4705508Y-2843143D03*
G01X4770508Y-2843143D03*
G01X4770508Y-2433143D03*
G01X4705508Y-2433143D03*
G01X4640508Y-2433143D03*
G01X4575508Y-2433143D03*
G04 Pad End*

M02*

