G04 Layer: TopSilkscreenLayer*
G04 EasyEDA Pro v3.2.148, 2026-09-07 21:29:23*
G04 Gerber Generator version 0.3*
G04 Scale: 100 percent, Rotated: No, Reflected: No*
G04 Dimensions in millimeters*
G04 Leading zeros omitted, absolute positions, 4 integers and 5 decimals*
G04 Generated by one-click*
G04 Object Configs: Pad,Via,Track,Text,Image,Dimension,BoardOutline,BoardCutout,CopperFilled,SolidRegion,FPCStiffener,Line,PlaneZone,ComponentProperty,ComponentSilkscreen,TearDrop*
G04 Layer Configs: 1,2,3,4,5,6,7,8,9,10,11,13,14,56*
G04 Copper Areas: 0*
%FSLAX45Y45*%
%MOMM*%
%ADD10C,0.1524*%
%ADD11C,0.09144*%
%ADD12C,0.1016*%
%ADD13C,0.12192*%
%ADD14C,0.08128*%
%ADD15C,0.2078*%
%ADD16C,0.2032*%
%ADD17C,0.254*%
%ADD18C,0.127*%
%ADD19C,0.003*%
G75*


G04 Text Start*
G54D10*
G01X270005Y-3164561D02*
G01X266957Y-3158211D01*
G01X260607Y-3152115D01*
G01X254511Y-3149067D01*
G01X242065Y-3149067D01*
G01X235969Y-3152115D01*
G01X229619Y-3158211D01*
G01X226571Y-3164561D01*
G01X223523Y-3173705D01*
G01X223523Y-3189199D01*
G01X226571Y-3198597D01*
G01X229619Y-3204693D01*
G01X235969Y-3211043D01*
G01X242065Y-3214091D01*
G01X254511Y-3214091D01*
G01X260607Y-3211043D01*
G01X266957Y-3204693D01*
G01X270005Y-3198597D01*
G01X300231Y-3149067D02*
G01X300231Y-3214091D01*
G01X300231Y-3149067D02*
G01X343411Y-3214091D01*
G01X343411Y-3149067D02*
G01X343411Y-3214091D01*
G01X373637Y-3161513D02*
G01X379733Y-3158211D01*
G01X388877Y-3149067D01*
G01X388877Y-3214091D01*
G01X4335620Y-3953167D02*
G01X4335620Y-3999649D01*
G01X4338668Y-4008793D01*
G01X4345018Y-4015143D01*
G01X4354162Y-4018191D01*
G01X4360512Y-4018191D01*
G01X4369656Y-4015143D01*
G01X4375752Y-4008793D01*
G01X4379054Y-3999649D01*
G01X4379054Y-3953167D01*
G01X4409280Y-3965613D02*
G01X4415376Y-3962311D01*
G01X4424520Y-3953167D01*
G01X4424520Y-4018191D01*
G54D11*
G01X822452Y-732790D02*
G01X826008Y-736346D01*
G01X831088Y-737870D01*
G01X837946Y-737870D01*
G01X843026Y-736346D01*
G01X846328Y-732790D01*
G01X846328Y-729488D01*
G01X844550Y-725932D01*
G01X843026Y-724408D01*
G01X839470Y-722630D01*
G01X829310Y-719328D01*
G01X826008Y-717550D01*
G01X824230Y-715772D01*
G01X822452Y-712470D01*
G01X822452Y-707390D01*
G01X826008Y-703834D01*
G01X831088Y-702310D01*
G01X837946Y-702310D01*
G01X843026Y-703834D01*
G01X846328Y-707390D01*
G01X805180Y-737870D02*
G01X796544Y-702310D01*
G01X788162Y-737870D02*
G01X796544Y-702310D01*
G01X788162Y-737870D02*
G01X779780Y-702310D01*
G01X771144Y-737870D02*
G01X779780Y-702310D01*
G01X753872Y-737870D02*
G01X753872Y-702310D01*
G01X753872Y-737870D02*
G01X741934Y-737870D01*
G01X736854Y-736346D01*
G01X733552Y-732790D01*
G01X731774Y-729488D01*
G01X729996Y-724408D01*
G01X729996Y-715772D01*
G01X731774Y-710692D01*
G01X733552Y-707390D01*
G01X736854Y-703834D01*
G01X741934Y-702310D01*
G01X753872Y-702310D01*
G01X687324Y-729488D02*
G01X688848Y-732790D01*
G01X692404Y-736346D01*
G01X695706Y-737870D01*
G01X702564Y-737870D01*
G01X705866Y-736346D01*
G01X709422Y-732790D01*
G01X710946Y-729488D01*
G01X712724Y-724408D01*
G01X712724Y-715772D01*
G01X710946Y-710692D01*
G01X709422Y-707390D01*
G01X705866Y-703834D01*
G01X702564Y-702310D01*
G01X695706Y-702310D01*
G01X692404Y-703834D01*
G01X688848Y-707390D01*
G01X687324Y-710692D01*
G01X670052Y-737870D02*
G01X670052Y-702310D01*
G01X670052Y-702310D02*
G01X649732Y-702310D01*
G01X632460Y-737870D02*
G01X632460Y-702310D01*
G01X608584Y-737870D02*
G01X632460Y-714248D01*
G01X623824Y-722630D02*
G01X608584Y-702310D01*
G01X908812Y-706628D02*
G01X905510Y-708152D01*
G01X901954Y-711708D01*
G01X900430Y-715010D01*
G01X900430Y-721868D01*
G01X901954Y-725170D01*
G01X905510Y-728726D01*
G01X908812Y-730250D01*
G01X913892Y-732028D01*
G01X922528Y-732028D01*
G01X927608Y-730250D01*
G01X930910Y-728726D01*
G01X934466Y-725170D01*
G01X935990Y-721868D01*
G01X935990Y-715010D01*
G01X934466Y-711708D01*
G01X930910Y-708152D01*
G01X927608Y-706628D01*
G01X922528Y-706628D01*
G01X922528Y-715010D02*
G01X922528Y-706628D01*
G01X900430Y-689356D02*
G01X935990Y-689356D01*
G01X900430Y-689356D02*
G01X935990Y-665480D01*
G01X900430Y-665480D02*
G01X935990Y-665480D01*
G01X900430Y-648208D02*
G01X935990Y-648208D01*
G01X900430Y-648208D02*
G01X900430Y-636270D01*
G01X901954Y-631190D01*
G01X905510Y-627888D01*
G01X908812Y-626110D01*
G01X913892Y-624332D01*
G01X922528Y-624332D01*
G01X927608Y-626110D01*
G01X930910Y-627888D01*
G01X934466Y-631190D01*
G01X935990Y-636270D01*
G01X935990Y-648208D01*
G01X746252Y-1266190D02*
G01X749808Y-1269746D01*
G01X754888Y-1271270D01*
G01X761746Y-1271270D01*
G01X766826Y-1269746D01*
G01X770128Y-1266190D01*
G01X770128Y-1262888D01*
G01X768350Y-1259332D01*
G01X766826Y-1257808D01*
G01X763270Y-1256030D01*
G01X753110Y-1252728D01*
G01X749808Y-1250950D01*
G01X748030Y-1249172D01*
G01X746252Y-1245870D01*
G01X746252Y-1240790D01*
G01X749808Y-1237234D01*
G01X754888Y-1235710D01*
G01X761746Y-1235710D01*
G01X766826Y-1237234D01*
G01X770128Y-1240790D01*
G01X728980Y-1271270D02*
G01X720344Y-1235710D01*
G01X711962Y-1271270D02*
G01X720344Y-1235710D01*
G01X711962Y-1271270D02*
G01X703580Y-1235710D01*
G01X694944Y-1271270D02*
G01X703580Y-1235710D01*
G01X677672Y-1271270D02*
G01X677672Y-1235710D01*
G01X650240Y-1271270D02*
G01X653542Y-1269746D01*
G01X656844Y-1266190D01*
G01X658622Y-1262888D01*
G01X660400Y-1257808D01*
G01X660400Y-1249172D01*
G01X658622Y-1244092D01*
G01X656844Y-1240790D01*
G01X653542Y-1237234D01*
G01X650240Y-1235710D01*
G01X643382Y-1235710D01*
G01X640080Y-1237234D01*
G01X636524Y-1240790D01*
G01X634746Y-1244092D01*
G01X633222Y-1249172D01*
G01X633222Y-1257808D01*
G01X634746Y-1262888D01*
G01X636524Y-1266190D01*
G01X640080Y-1269746D01*
G01X643382Y-1271270D01*
G01X650240Y-1271270D01*
G01X900430Y-1392428D02*
G01X935990Y-1392428D01*
G01X900430Y-1392428D02*
G01X900430Y-1377188D01*
G01X901954Y-1372108D01*
G01X903732Y-1370330D01*
G01X907288Y-1368552D01*
G01X910590Y-1368552D01*
G01X913892Y-1370330D01*
G01X915670Y-1372108D01*
G01X917448Y-1377188D01*
G01X917448Y-1392428D01*
G01X917448Y-1380490D02*
G01X935990Y-1368552D01*
G01X900430Y-1351280D02*
G01X925830Y-1351280D01*
G01X930910Y-1349502D01*
G01X934466Y-1346200D01*
G01X935990Y-1341120D01*
G01X935990Y-1337564D01*
G01X934466Y-1332484D01*
G01X930910Y-1329182D01*
G01X925830Y-1327404D01*
G01X900430Y-1327404D01*
G01X900430Y-1310132D02*
G01X935990Y-1310132D01*
G01X900430Y-1310132D02*
G01X935990Y-1286256D01*
G01X900430Y-1286256D02*
G01X935990Y-1286256D01*
G54D12*
G01X2029968Y-709422D02*
G01X2027936Y-705358D01*
G01X2023872Y-701294D01*
G01X2019554Y-699262D01*
G01X2011426Y-699262D01*
G01X2007362Y-701294D01*
G01X2003044Y-705358D01*
G01X2001012Y-709422D01*
G01X1998980Y-715772D01*
G01X1998980Y-725932D01*
G01X2001012Y-732282D01*
G01X2003044Y-736346D01*
G01X2007362Y-740410D01*
G01X2011426Y-742442D01*
G01X2019554Y-742442D01*
G01X2023872Y-740410D01*
G01X2027936Y-736346D01*
G01X2029968Y-732282D01*
G01X2029968Y-725932D01*
G01X2019554Y-725932D02*
G01X2029968Y-725932D01*
G01X2050034Y-699262D02*
G01X2050034Y-742442D01*
G01X2050034Y-699262D02*
G01X2078990Y-742442D01*
G01X2078990Y-699262D02*
G01X2078990Y-742442D01*
G01X2099056Y-699262D02*
G01X2099056Y-742442D01*
G01X2099056Y-699262D02*
G01X2113534Y-699262D01*
G01X2119630Y-701294D01*
G01X2123948Y-705358D01*
G01X2125980Y-709422D01*
G01X2128012Y-715772D01*
G01X2128012Y-725932D01*
G01X2125980Y-732282D01*
G01X2123948Y-736346D01*
G01X2119630Y-740410D01*
G01X2113534Y-742442D01*
G01X2099056Y-742442D01*
G01X2049780Y-1181862D02*
G01X2066290Y-1225042D01*
G01X2082800Y-1181862D02*
G01X2066290Y-1225042D01*
G01X2102866Y-1181862D02*
G01X2102866Y-1225042D01*
G01X2122932Y-1181862D02*
G01X2122932Y-1225042D01*
G01X2122932Y-1181862D02*
G01X2151888Y-1225042D01*
G01X2151888Y-1181862D02*
G01X2151888Y-1225042D01*
G54D11*
G01X2145030Y-1544828D02*
G01X2180590Y-1544828D01*
G01X2145030Y-1544828D02*
G01X2145030Y-1529588D01*
G01X2146554Y-1524508D01*
G01X2148332Y-1522730D01*
G01X2151888Y-1520952D01*
G01X2155190Y-1520952D01*
G01X2158492Y-1522730D01*
G01X2160270Y-1524508D01*
G01X2162048Y-1529588D01*
G01X2162048Y-1544828D01*
G01X2162048Y-1532890D02*
G01X2180590Y-1520952D01*
G01X2145030Y-1503680D02*
G01X2180590Y-1503680D01*
G01X2145030Y-1503680D02*
G01X2145030Y-1481582D01*
G01X2162048Y-1503680D02*
G01X2162048Y-1489964D01*
G01X2180590Y-1503680D02*
G01X2180590Y-1481582D01*
G01X2150110Y-1440434D02*
G01X2146554Y-1443990D01*
G01X2145030Y-1449070D01*
G01X2145030Y-1455674D01*
G01X2146554Y-1461008D01*
G01X2150110Y-1464310D01*
G01X2153412Y-1464310D01*
G01X2156968Y-1462532D01*
G01X2158492Y-1461008D01*
G01X2160270Y-1457452D01*
G01X2163572Y-1447292D01*
G01X2165350Y-1443990D01*
G01X2167128Y-1442212D01*
G01X2170430Y-1440434D01*
G01X2175510Y-1440434D01*
G01X2179066Y-1443990D01*
G01X2180590Y-1449070D01*
G01X2180590Y-1455674D01*
G01X2179066Y-1461008D01*
G01X2175510Y-1464310D01*
G01X2145030Y-1423162D02*
G01X2180590Y-1423162D01*
G01X2145030Y-1423162D02*
G01X2145030Y-1401064D01*
G01X2162048Y-1423162D02*
G01X2162048Y-1409446D01*
G01X2180590Y-1423162D02*
G01X2180590Y-1401064D01*
G01X2145030Y-1371854D02*
G01X2180590Y-1371854D01*
G01X2145030Y-1383792D02*
G01X2145030Y-1359916D01*
G01X2145030Y-630428D02*
G01X2180590Y-630428D01*
G01X2145030Y-630428D02*
G01X2145030Y-615188D01*
G01X2146554Y-610108D01*
G01X2148332Y-608330D01*
G01X2151888Y-606552D01*
G01X2155190Y-606552D01*
G01X2158492Y-608330D01*
G01X2160270Y-610108D01*
G01X2162048Y-615188D01*
G01X2162048Y-630428D02*
G01X2162048Y-615188D01*
G01X2163572Y-610108D01*
G01X2165350Y-608330D01*
G01X2168652Y-606552D01*
G01X2173732Y-606552D01*
G01X2177288Y-608330D01*
G01X2179066Y-610108D01*
G01X2180590Y-615188D01*
G01X2180590Y-630428D01*
G01X2145030Y-579120D02*
G01X2146554Y-582422D01*
G01X2150110Y-585978D01*
G01X2153412Y-587502D01*
G01X2158492Y-589280D01*
G01X2167128Y-589280D01*
G01X2172208Y-587502D01*
G01X2175510Y-585978D01*
G01X2179066Y-582422D01*
G01X2180590Y-579120D01*
G01X2180590Y-572262D01*
G01X2179066Y-568960D01*
G01X2175510Y-565404D01*
G01X2172208Y-563880D01*
G01X2167128Y-562102D01*
G01X2158492Y-562102D01*
G01X2153412Y-563880D01*
G01X2150110Y-565404D01*
G01X2146554Y-568960D01*
G01X2145030Y-572262D01*
G01X2145030Y-579120D01*
G01X2145030Y-534670D02*
G01X2146554Y-537972D01*
G01X2150110Y-541528D01*
G01X2153412Y-543052D01*
G01X2158492Y-544830D01*
G01X2167128Y-544830D01*
G01X2172208Y-543052D01*
G01X2175510Y-541528D01*
G01X2179066Y-537972D01*
G01X2180590Y-534670D01*
G01X2180590Y-527812D01*
G01X2179066Y-524510D01*
G01X2175510Y-520954D01*
G01X2172208Y-519430D01*
G01X2167128Y-517652D01*
G01X2158492Y-517652D01*
G01X2153412Y-519430D01*
G01X2150110Y-520954D01*
G01X2146554Y-524510D01*
G01X2145030Y-527812D01*
G01X2145030Y-534670D01*
G01X2145030Y-488442D02*
G01X2180590Y-488442D01*
G01X2145030Y-500380D02*
G01X2145030Y-476504D01*
G54D13*
G01X1096772Y-1136904D02*
G01X1138682Y-1136904D01*
G01X1147064Y-1134110D01*
G01X1152652Y-1128522D01*
G01X1155446Y-1120140D01*
G01X1155446Y-1114552D01*
G01X1152652Y-1106170D01*
G01X1147064Y-1100582D01*
G01X1138682Y-1097788D01*
G01X1096772Y-1097788D01*
G01X1105154Y-1033018D02*
G01X1099566Y-1038606D01*
G01X1096772Y-1046988D01*
G01X1096772Y-1058164D01*
G01X1099566Y-1066546D01*
G01X1105154Y-1072134D01*
G01X1110742Y-1072134D01*
G01X1116330Y-1069340D01*
G01X1119124Y-1066546D01*
G01X1121918Y-1060958D01*
G01X1127506Y-1044194D01*
G01X1130300Y-1038606D01*
G01X1133094Y-1035812D01*
G01X1138682Y-1033018D01*
G01X1147064Y-1033018D01*
G01X1152652Y-1038606D01*
G01X1155446Y-1046988D01*
G01X1155446Y-1058164D01*
G01X1152652Y-1066546D01*
G01X1147064Y-1072134D01*
G01X1096772Y-1007364D02*
G01X1155446Y-1007364D01*
G01X1096772Y-1007364D02*
G01X1096772Y-982218D01*
G01X1099566Y-973836D01*
G01X1102360Y-971042D01*
G01X1107948Y-968248D01*
G01X1113536Y-968248D01*
G01X1119124Y-971042D01*
G01X1121918Y-973836D01*
G01X1124712Y-982218D01*
G01X1124712Y-1007364D02*
G01X1124712Y-982218D01*
G01X1127506Y-973836D01*
G01X1130300Y-971042D01*
G01X1135888Y-968248D01*
G01X1144270Y-968248D01*
G01X1149858Y-971042D01*
G01X1152652Y-973836D01*
G01X1155446Y-982218D01*
G01X1155446Y-1007364D01*
G01X1107948Y-942594D02*
G01X1105154Y-937006D01*
G01X1096772Y-928624D01*
G01X1155446Y-928624D01*
G01X2112772Y-1111504D02*
G01X2171446Y-1111504D01*
G01X2112772Y-1111504D02*
G01X2112772Y-1086358D01*
G01X2115566Y-1077976D01*
G01X2118360Y-1075182D01*
G01X2123948Y-1072388D01*
G01X2129536Y-1072388D01*
G01X2135124Y-1075182D01*
G01X2137918Y-1077976D01*
G01X2140712Y-1086358D01*
G01X2140712Y-1111504D01*
G01X2140712Y-1091946D02*
G01X2171446Y-1072388D01*
G01X2126742Y-1004824D02*
G01X2121154Y-1007618D01*
G01X2115566Y-1013206D01*
G01X2112772Y-1018794D01*
G01X2112772Y-1029970D01*
G01X2115566Y-1035558D01*
G01X2121154Y-1041146D01*
G01X2126742Y-1043940D01*
G01X2135124Y-1046734D01*
G01X2149094Y-1046734D01*
G01X2157476Y-1043940D01*
G01X2163064Y-1041146D01*
G01X2168652Y-1035558D01*
G01X2171446Y-1029970D01*
G01X2171446Y-1018794D01*
G01X2168652Y-1013206D01*
G01X2163064Y-1007618D01*
G01X2157476Y-1004824D01*
G01X2149094Y-1004824D01*
G01X2149094Y-1018794D02*
G01X2149094Y-1004824D01*
G01X2112772Y-979170D02*
G01X2171446Y-979170D01*
G01X2112772Y-979170D02*
G01X2112772Y-954024D01*
G01X2115566Y-945642D01*
G01X2118360Y-942848D01*
G01X2123948Y-940054D01*
G01X2129536Y-940054D01*
G01X2135124Y-942848D01*
G01X2137918Y-945642D01*
G01X2140712Y-954024D01*
G01X2140712Y-979170D02*
G01X2140712Y-954024D01*
G01X2143506Y-945642D01*
G01X2146300Y-942848D01*
G01X2151888Y-940054D01*
G01X2160270Y-940054D01*
G01X2165858Y-942848D01*
G01X2168652Y-945642D01*
G01X2171446Y-954024D01*
G01X2171446Y-979170D01*
G01X2123948Y-914400D02*
G01X2121154Y-908812D01*
G01X2112772Y-900430D01*
G01X2171446Y-900430D01*
G54D14*
G01X897636Y-492252D02*
G01X897636Y-448310D01*
G01X894588Y-439674D01*
G01X888746Y-433832D01*
G01X880110Y-430784D01*
G01X874268Y-430784D01*
G01X865378Y-433832D01*
G01X859536Y-439674D01*
G01X856742Y-448310D01*
G01X856742Y-492252D01*
G01X1126236Y-492252D02*
G01X1126236Y-430784D01*
G01X1126236Y-492252D02*
G01X1099820Y-492252D01*
G01X1091184Y-489204D01*
G01X1088136Y-486410D01*
G01X1085342Y-480568D01*
G01X1085342Y-471678D01*
G01X1088136Y-465836D01*
G01X1091184Y-463042D01*
G01X1099820Y-459994D01*
G01X1126236Y-459994D01*
G54D13*
G01X2442972Y-1728724D02*
G01X2501646Y-1728724D01*
G01X2442972Y-1728724D02*
G01X2442972Y-1703578D01*
G01X2445766Y-1695196D01*
G01X2448560Y-1692402D01*
G01X2454148Y-1689608D01*
G01X2459736Y-1689608D01*
G01X2465324Y-1692402D01*
G01X2468118Y-1695196D01*
G01X2470912Y-1703578D01*
G01X2470912Y-1728724D01*
G01X2470912Y-1709166D02*
G01X2501646Y-1689608D01*
G01X2442972Y-349504D02*
G01X2501646Y-349504D01*
G01X2442972Y-349504D02*
G01X2442972Y-324358D01*
G01X2445766Y-315976D01*
G01X2448560Y-313182D01*
G01X2454148Y-310388D01*
G01X2459736Y-310388D01*
G01X2465324Y-313182D01*
G01X2468118Y-315976D01*
G01X2470912Y-324358D01*
G01X2470912Y-349504D02*
G01X2470912Y-324358D01*
G01X2473706Y-315976D01*
G01X2476500Y-313182D01*
G01X2482088Y-310388D01*
G01X2490470Y-310388D01*
G01X2496058Y-313182D01*
G01X2498852Y-315976D01*
G01X2501646Y-324358D01*
G01X2501646Y-349504D01*
G54D10*
G01X2577338Y-2062988D02*
G01X2577338Y-2016506D01*
G01X2574290Y-2007362D01*
G01X2567940Y-2001012D01*
G01X2558796Y-1997964D01*
G01X2552446Y-1997964D01*
G01X2543302Y-2001012D01*
G01X2537206Y-2007362D01*
G01X2533904Y-2016506D01*
G01X2533904Y-2062988D01*
G01X2500630Y-2047494D02*
G01X2500630Y-2050542D01*
G01X2497582Y-2056892D01*
G01X2494534Y-2059940D01*
G01X2488438Y-2062988D01*
G01X2475992Y-2062988D01*
G01X2469642Y-2059940D01*
G01X2466594Y-2056892D01*
G01X2463546Y-2050542D01*
G01X2463546Y-2044446D01*
G01X2466594Y-2038350D01*
G01X2472944Y-2028952D01*
G01X2503678Y-1997964D01*
G01X2460498Y-1997964D01*
G36*
G01X4477010Y-2754910D02*
G01X4477165Y-2753353D01*
G01X4477010Y-2751485D01*
G01X4476698Y-2747437D01*
G01X4476387Y-2745257D01*
G01X4475920Y-2743856D01*
G01X4475453Y-2742144D01*
G01X4474986Y-2740743D01*
G01X4474363Y-2739341D01*
G01X4473740Y-2737784D01*
G01X4473117Y-2736695D01*
G01X4471561Y-2734359D01*
G01X4470626Y-2733114D01*
G01X4467513Y-2730000D01*
G01X4466734Y-2729377D01*
G01X4465644Y-2728755D01*
G01X4464243Y-2727820D01*
G01X4461441Y-2726419D01*
G01X4460040Y-2725952D01*
G01X4458483Y-2725485D01*
G01X4456770Y-2725018D01*
G01X4454902Y-2724707D01*
G01X4453345Y-2724395D01*
G01X4429058Y-2724240D01*
G01X4405549Y-2724240D01*
G01X4405549Y-2733581D01*
G01X4428435Y-2733581D01*
G01X4451788Y-2733736D01*
G01X4454591Y-2734048D01*
G01X4457082Y-2734671D01*
G01X4458327Y-2735138D01*
G01X4459884Y-2735916D01*
G01X4461285Y-2736695D01*
G01X4462686Y-2737629D01*
G01X4464554Y-2739497D01*
G01X4465333Y-2740431D01*
G01X4465956Y-2741365D01*
G01X4467201Y-2743545D01*
G01X4467668Y-2744635D01*
G01X4468135Y-2746036D01*
G01X4468602Y-2747748D01*
G01X4468914Y-2749305D01*
G01X4469225Y-2751796D01*
G01X4469381Y-2754287D01*
G01X4469225Y-2756778D01*
G01X4468914Y-2758958D01*
G01X4468602Y-2760359D01*
G01X4468135Y-2761916D01*
G01X4467668Y-2763162D01*
G01X4467045Y-2764407D01*
G01X4466267Y-2765653D01*
G01X4465644Y-2766587D01*
G01X4465022Y-2767365D01*
G01X4464243Y-2768144D01*
G01X4462998Y-2769078D01*
G01X4461441Y-2770167D01*
G01X4459884Y-2770946D01*
G01X4458171Y-2771569D01*
G01X4456147Y-2772192D01*
G01X4454279Y-2772503D01*
G01X4453034Y-2772658D01*
G01X4429058Y-2772814D01*
G01X4405549Y-2772814D01*
G01X4405549Y-2782467D01*
G01X4429369Y-2782467D01*
G01X4453656Y-2782311D01*
G01X4456147Y-2782000D01*
G01X4457704Y-2781688D01*
G01X4459417Y-2781221D01*
G01X4460818Y-2780754D01*
G01X4462063Y-2780287D01*
G01X4463309Y-2779664D01*
G01X4464710Y-2778886D01*
G01X4466111Y-2777952D01*
G01X4467668Y-2776862D01*
G01X4470315Y-2774215D01*
G01X4471249Y-2772970D01*
G01X4472339Y-2771413D01*
G01X4473273Y-2769856D01*
G01X4474052Y-2768299D01*
G01X4474674Y-2766742D01*
G01X4475297Y-2765030D01*
G01X4475764Y-2763317D01*
G01X4476387Y-2760826D01*
G01X4476542Y-2759425D01*
G01X4476698Y-2758335D01*
G01X4476854Y-2756467D01*
G01X4477010Y-2754910D01*
G37*
G36*
G01X4477010Y-2689833D02*
G01X4477165Y-2687497D01*
G01X4477010Y-2684851D01*
G01X4476698Y-2681425D01*
G01X4476075Y-2678312D01*
G01X4475608Y-2676911D01*
G01X4474986Y-2675198D01*
G01X4474363Y-2673641D01*
G01X4473740Y-2672551D01*
G01X4473117Y-2671617D01*
G01X4472339Y-2670683D01*
G01X4471093Y-2669126D01*
G01X4470315Y-2668348D01*
G01X4469536Y-2667725D01*
G01X4468758Y-2667258D01*
G01X4467668Y-2666480D01*
G01X4464866Y-2665078D01*
G01X4463465Y-2664611D01*
G01X4462063Y-2664300D01*
G01X4460818Y-2663988D01*
G01X4459417Y-2663833D01*
G01X4458327Y-2663677D01*
G01X4456303Y-2663521D01*
G01X4454279Y-2663677D01*
G01X4452722Y-2663988D01*
G01X4451010Y-2664455D01*
G01X4449764Y-2664923D01*
G01X4448519Y-2665545D01*
G01X4447118Y-2666480D01*
G01X4446028Y-2667414D01*
G01X4444471Y-2668971D01*
G01X4443692Y-2670060D01*
G01X4442758Y-2671462D01*
G01X4441980Y-2673018D01*
G01X4441357Y-2674731D01*
G01X4440734Y-2676599D01*
G01X4440423Y-2678156D01*
G01X4440267Y-2679246D01*
G01X4439800Y-2679869D01*
G01X4439567Y-2679830D01*
G01X4439489Y-2679402D01*
G01X4439177Y-2678156D01*
G01X4438710Y-2676755D01*
G01X4438243Y-2675509D01*
G01X4437776Y-2674420D01*
G01X4437153Y-2673174D01*
G01X4436219Y-2671773D01*
G01X4435285Y-2670683D01*
G01X4433728Y-2669126D01*
G01X4432483Y-2668192D01*
G01X4430926Y-2667258D01*
G01X4429369Y-2666635D01*
G01X4427657Y-2666168D01*
G01X4426255Y-2665857D01*
G01X4422519Y-2665701D01*
G01X4418782Y-2665857D01*
G01X4417225Y-2666324D01*
G01X4415357Y-2666946D01*
G01X4414112Y-2667569D01*
G01X4413022Y-2668192D01*
G01X4411621Y-2669126D01*
G01X4409752Y-2670994D01*
G01X4408818Y-2672084D01*
G01X4407884Y-2673485D01*
G01X4407106Y-2674887D01*
G01X4406483Y-2676132D01*
G01X4406016Y-2677378D01*
G01X4405549Y-2678779D01*
G01X4405238Y-2680024D01*
G01X4405082Y-2681114D01*
G01X4404770Y-2682671D01*
G01X4404459Y-2685162D01*
G01X4404303Y-2688743D01*
G01X4404459Y-2691390D01*
G01X4404770Y-2693881D01*
G01X4405082Y-2695282D01*
G01X4405549Y-2696839D01*
G01X4406016Y-2698240D01*
G01X4406483Y-2699485D01*
G01X4407106Y-2700731D01*
G01X4408040Y-2702288D01*
G01X4409908Y-2704779D01*
G01X4410998Y-2705868D01*
G01X4413489Y-2707737D01*
G01X4414423Y-2708359D01*
G01X4415669Y-2708982D01*
G01X4417070Y-2709605D01*
G01X4418471Y-2710072D01*
G01X4420962Y-2710695D01*
G01X4422208Y-2710851D01*
G01X4422597Y-2710500D01*
G01X4422830Y-2709449D01*
G01X4422986Y-2706958D01*
G01X4423142Y-2705401D01*
G01X4423297Y-2703533D01*
G01X4423297Y-2702132D01*
G01X4422519Y-2701976D01*
G01X4420806Y-2701509D01*
G01X4418938Y-2700886D01*
G01X4417692Y-2700264D01*
G01X4416758Y-2699641D01*
G01X4415824Y-2698863D01*
G01X4415046Y-2698084D01*
G01X4414423Y-2697306D01*
G01X4413800Y-2696216D01*
G01X4413178Y-2694970D01*
G01X4412711Y-2693881D01*
G01X4412399Y-2692791D01*
G01X4412243Y-2691701D01*
G01X4411932Y-2690455D01*
G01X4411776Y-2687497D01*
G01X4411932Y-2684851D01*
G01X4412243Y-2683449D01*
G01X4412711Y-2681893D01*
G01X4413178Y-2680803D01*
G01X4413800Y-2679713D01*
G01X4414579Y-2678623D01*
G01X4415357Y-2677845D01*
G01X4416447Y-2677066D01*
G01X4417848Y-2676288D01*
G01X4419249Y-2675665D01*
G01X4420962Y-2675198D01*
G01X4423142Y-2674887D01*
G01X4424854Y-2674731D01*
G01X4425944Y-2674887D01*
G01X4427345Y-2675198D01*
G01X4428902Y-2675665D01*
G01X4430303Y-2676443D01*
G01X4431393Y-2677378D01*
G01X4432639Y-2678623D01*
G01X4433261Y-2679402D01*
G01X4433884Y-2680336D01*
G01X4434507Y-2681581D01*
G01X4435130Y-2683138D01*
G01X4435597Y-2685162D01*
G01X4435908Y-2686719D01*
G01X4436219Y-2690455D01*
G01X4436375Y-2693102D01*
G01X4436375Y-2695282D01*
G01X4443848Y-2695282D01*
G01X4443848Y-2692635D01*
G01X4444004Y-2689521D01*
G01X4444315Y-2684851D01*
G01X4444626Y-2683294D01*
G01X4445093Y-2681581D01*
G01X4445561Y-2680336D01*
G01X4446028Y-2679246D01*
G01X4446806Y-2678000D01*
G01X4447584Y-2676911D01*
G01X4448207Y-2676132D01*
G01X4449141Y-2675354D01*
G01X4450387Y-2674575D01*
G01X4451944Y-2673797D01*
G01X4453656Y-2673330D01*
G01X4455213Y-2673018D01*
G01X4456926Y-2672863D01*
G01X4458327Y-2673018D01*
G01X4460507Y-2673330D01*
G01X4461908Y-2673797D01*
G01X4463309Y-2674420D01*
G01X4464243Y-2675042D01*
G01X4465489Y-2675976D01*
G01X4466579Y-2677222D01*
G01X4467357Y-2678467D01*
G01X4468135Y-2680024D01*
G01X4468758Y-2681425D01*
G01X4469070Y-2682515D01*
G01X4469225Y-2683605D01*
G01X4469536Y-2685162D01*
G01X4469692Y-2687809D01*
G01X4469536Y-2689833D01*
G01X4469225Y-2692324D01*
G01X4468914Y-2693569D01*
G01X4468447Y-2694970D01*
G01X4467824Y-2696216D01*
G01X4467045Y-2697461D01*
G01X4466267Y-2698551D01*
G01X4465489Y-2699330D01*
G01X4464399Y-2700108D01*
G01X4462998Y-2701042D01*
G01X4461596Y-2701665D01*
G01X4460351Y-2702132D01*
G01X4458483Y-2702599D01*
G01X4457237Y-2702755D01*
G01X4457237Y-2704467D01*
G01X4457393Y-2706647D01*
G01X4457704Y-2710072D01*
G01X4457860Y-2711317D01*
G01X4457860Y-2712096D01*
G01X4458950Y-2712096D01*
G01X4460507Y-2711940D01*
G01X4462063Y-2711473D01*
G01X4463932Y-2710851D01*
G01X4465489Y-2710228D01*
G01X4466890Y-2709449D01*
G01X4468291Y-2708515D01*
G01X4469381Y-2707581D01*
G01X4470315Y-2706803D01*
G01X4471249Y-2705868D01*
G01X4472028Y-2704934D01*
G01X4472650Y-2704156D01*
G01X4473273Y-2703066D01*
G01X4474052Y-2701665D01*
G01X4474674Y-2700419D01*
G01X4475141Y-2699174D01*
G01X4475608Y-2697773D01*
G01X4476075Y-2696060D01*
G01X4476387Y-2694503D01*
G01X4476698Y-2692324D01*
G01X4476854Y-2690922D01*
G01X4477010Y-2689833D01*
G37*
G54D16*
G01X3312160Y-2464562D02*
G01X3356864Y-2464562D01*
G01X3029712Y-2429510D02*
G01X3029712Y-2474214D01*
G01X3007360Y-2451862D02*
G01X3052064Y-2451862D01*
G54D10*
G01X2880309Y-2168855D02*
G01X2880309Y-2215337D01*
G01X2883357Y-2224481D01*
G01X2889707Y-2230831D01*
G01X2898851Y-2233879D01*
G01X2905201Y-2233879D01*
G01X2914345Y-2230831D01*
G01X2920441Y-2224481D01*
G01X2923743Y-2215337D01*
G01X2923743Y-2168855D01*
G01X2984703Y-2168855D02*
G01X2953969Y-2212035D01*
G01X3000197Y-2212035D01*
G01X2984703Y-2168855D02*
G01X2984703Y-2233879D01*
G54D16*
G01X3362957Y-3934305D02*
G01X3407661Y-3934305D01*
G01X3080509Y-3899253D02*
G01X3080509Y-3943957D01*
G01X3058157Y-3921605D02*
G01X3102861Y-3921605D01*
G54D10*
G01X2931107Y-3638599D02*
G01X2931107Y-3685081D01*
G01X2934155Y-3694225D01*
G01X2940505Y-3700575D01*
G01X2949649Y-3703623D01*
G01X2955999Y-3703623D01*
G01X2965143Y-3700575D01*
G01X2971239Y-3694225D01*
G01X2974541Y-3685081D01*
G01X2974541Y-3638599D01*
G01X3041851Y-3638599D02*
G01X3010863Y-3638599D01*
G01X3007815Y-3666285D01*
G01X3010863Y-3663237D01*
G01X3020007Y-3660189D01*
G01X3029405Y-3660189D01*
G01X3038803Y-3663237D01*
G01X3044899Y-3669587D01*
G01X3047947Y-3678731D01*
G01X3047947Y-3685081D01*
G01X3044899Y-3694225D01*
G01X3038803Y-3700575D01*
G01X3029405Y-3703623D01*
G01X3020007Y-3703623D01*
G01X3010863Y-3700575D01*
G01X3007815Y-3697273D01*
G01X3004767Y-3691177D01*
G36*
G01X4745413Y-570346D02*
G01X4740333Y-569884D01*
G01X4735714Y-569422D01*
G01X4730173Y-568960D01*
G01X4722784Y-568036D01*
G01X4717704Y-567113D01*
G01X4711238Y-565727D01*
G01X4705234Y-563880D01*
G01X4700154Y-562033D01*
G01X4695998Y-560186D01*
G01X4692304Y-558338D01*
G01X4685838Y-554644D01*
G01X4683067Y-552796D01*
G01X4680758Y-550949D01*
G01X4677526Y-548178D01*
G01X4673831Y-545407D01*
G01X4671522Y-543098D01*
G01X4665980Y-536171D01*
G01X4663671Y-532938D01*
G01X4661362Y-529244D01*
G01X4657667Y-521854D01*
G01X4655820Y-517698D01*
G01X4653973Y-512156D01*
G01X4652126Y-506153D01*
G01X4650740Y-501534D01*
G01X4648893Y-490451D01*
G01X4647969Y-481214D01*
G01X4647507Y-468746D01*
G01X4647610Y-465974D01*
G01X4678911Y-465974D01*
G01X4679373Y-484909D01*
G01X4679834Y-488604D01*
G01X4680296Y-493222D01*
G01X4681220Y-499687D01*
G01X4682144Y-505229D01*
G01X4683067Y-509386D01*
G01X4684453Y-514927D01*
G01X4686300Y-520469D01*
G01X4688147Y-524626D01*
G01X4692304Y-532938D01*
G01X4694613Y-536171D01*
G01X4696460Y-538942D01*
G01X4698769Y-541713D01*
G01X4701078Y-544022D01*
G01X4704311Y-546793D01*
G01X4708467Y-549564D01*
G01X4712624Y-551873D01*
G01X4716780Y-553720D01*
G01X4721860Y-555567D01*
G01X4726478Y-556953D01*
G01X4731096Y-557414D01*
G01X4731096Y-557414D01*
G01X4734791Y-557876D01*
G01X4743104Y-558338D01*
G01X4754187Y-557876D01*
G01X4760653Y-556953D01*
G01X4767118Y-555567D01*
G01X4772198Y-553720D01*
G01X4776354Y-551873D01*
G01X4780973Y-549564D01*
G01X4785129Y-546793D01*
G01X4788362Y-544484D01*
G01X4792980Y-539866D01*
G01X4795751Y-536633D01*
G01X4798522Y-532476D01*
G01X4800831Y-528320D01*
G01X4802678Y-524164D01*
G01X4804526Y-519546D01*
G01X4806373Y-513542D01*
G01X4807758Y-508924D01*
G01X4809606Y-498764D01*
G01X4810529Y-491374D01*
G01X4811453Y-473826D01*
G01X4811914Y-468746D01*
G01X4811453Y-463666D01*
G01X4810991Y-455814D01*
G01X4810529Y-446116D01*
G01X4809606Y-438727D01*
G01X4808682Y-433186D01*
G01X4807758Y-428567D01*
G01X4806373Y-422102D01*
G01X4804526Y-416098D01*
G01X4802678Y-411480D01*
G01X4800831Y-407324D01*
G01X4798522Y-403167D01*
G01X4796674Y-399934D01*
G01X4794827Y-397626D01*
G01X4786514Y-389313D01*
G01X4783282Y-387004D01*
G01X4780049Y-385156D01*
G01X4777278Y-383771D01*
G01X4770813Y-381000D01*
G01X4766656Y-379614D01*
G01X4762500Y-378691D01*
G01X4756034Y-377767D01*
G01X4746336Y-377306D01*
G01X4736638Y-377767D01*
G01X4726940Y-379153D01*
G01X4723246Y-380076D01*
G01X4719089Y-381462D01*
G01X4715394Y-382847D01*
G01X4707082Y-387004D01*
G01X4703849Y-389313D01*
G01X4701540Y-391160D01*
G01X4694613Y-398087D01*
G01X4692304Y-401320D01*
G01X4689994Y-405476D01*
G01X4688147Y-409171D01*
G01X4686300Y-413327D01*
G01X4683067Y-423026D01*
G01X4681220Y-431338D01*
G01X4680296Y-437804D01*
G01X4679373Y-447040D01*
G01X4678911Y-465974D01*
G01X4647610Y-465974D01*
G01X4647969Y-456276D01*
G01X4648431Y-452582D01*
G01X4648893Y-446116D01*
G01X4649816Y-440574D01*
G01X4651664Y-431338D01*
G01X4652587Y-427644D01*
G01X4653973Y-422564D01*
G01X4655820Y-417022D01*
G01X4657667Y-412866D01*
G01X4661824Y-404553D01*
G01X4667366Y-396240D01*
G01X4670136Y-393007D01*
G01X4677064Y-386080D01*
G01X4680296Y-383309D01*
G01X4684914Y-380076D01*
G01X4689533Y-377306D01*
G01X4693227Y-375458D01*
G01X4699693Y-372687D01*
G01X4703849Y-371302D01*
G01X4713086Y-368531D01*
G01X4717242Y-367607D01*
G01X4723707Y-366684D01*
G01X4732944Y-365760D01*
G01X4743566Y-365298D01*
G01X4754187Y-365760D01*
G01X4757420Y-366222D01*
G01X4763424Y-366684D01*
G01X4768966Y-367607D01*
G01X4772198Y-368069D01*
G01X4776816Y-368993D01*
G01X4780973Y-370378D01*
G01X4784667Y-371302D01*
G01X4788824Y-372687D01*
G01X4792518Y-374073D01*
G01X4795751Y-375458D01*
G01X4802216Y-379153D01*
G01X4805911Y-381462D01*
G01X4809144Y-383771D01*
G01X4811453Y-385156D01*
G01X4813762Y-387004D01*
G01X4819304Y-392546D01*
G01X4822998Y-397164D01*
G01X4826231Y-401782D01*
G01X4829002Y-405938D01*
G01X4831311Y-410094D01*
G01X4833158Y-414251D01*
G01X4834544Y-417946D01*
G01X4835929Y-421178D01*
G01X4837314Y-425796D01*
G01X4838700Y-430876D01*
G01X4840086Y-436880D01*
G01X4841009Y-442422D01*
G01X4841933Y-450734D01*
G01X4842394Y-465974D01*
G01X4841933Y-481214D01*
G01X4841009Y-489527D01*
G01X4840086Y-495069D01*
G01X4838700Y-502458D01*
G01X4837314Y-507076D01*
G01X4836391Y-510771D01*
G01X4835006Y-514927D01*
G01X4833620Y-518622D01*
G01X4832234Y-521854D01*
G01X4830387Y-525549D01*
G01X4828078Y-529706D01*
G01X4825307Y-533862D01*
G01X4822074Y-538480D01*
G01X4819304Y-542174D01*
G01X4812376Y-549102D01*
G01X4810067Y-550949D01*
G01X4803602Y-555567D01*
G01X4800369Y-557414D01*
G01X4791133Y-562033D01*
G01X4786053Y-563880D01*
G01X4780049Y-565727D01*
G01X4770813Y-568036D01*
G01X4762500Y-568960D01*
G01X4751416Y-569884D01*
G01X4745413Y-570346D01*
G37*
G36*
G01X5009573Y-567574D02*
G01X4968471Y-567113D01*
G01X4954154Y-566651D01*
G01X4940300Y-566651D01*
G01X4940300Y-563418D01*
G01X4940646Y-560763D01*
G01X4941686Y-559262D01*
G01X4947227Y-557876D01*
G01X4952769Y-556953D01*
G01X4959234Y-556029D01*
G01X4963391Y-555567D01*
G01X4966162Y-555567D01*
G01X4966162Y-381000D01*
G01X4994794Y-381000D01*
G01X4994794Y-465513D01*
G01X4995256Y-551411D01*
G01X4997104Y-553258D01*
G01X5010958Y-553720D01*
G01X5010958Y-553720D01*
G01X5023889Y-554182D01*
G01X5031740Y-554644D01*
G01X5040514Y-554182D01*
G01X5045594Y-553720D01*
G01X5051598Y-553258D01*
G01X5056216Y-552334D01*
G01X5063606Y-550487D01*
G01X5067762Y-549102D01*
G01X5071918Y-547254D01*
G01X5076536Y-544946D01*
G01X5080231Y-542636D01*
G01X5083002Y-540789D01*
G01X5090853Y-532938D01*
G01X5094086Y-528320D01*
G01X5096394Y-524626D01*
G01X5099166Y-519084D01*
G01X5101013Y-514927D01*
G01X5104246Y-505229D01*
G01X5106093Y-495993D01*
G01X5107016Y-489527D01*
G01X5107940Y-477520D01*
G01X5108402Y-469207D01*
G01X5107940Y-460894D01*
G01X5107478Y-456276D01*
G01X5107016Y-449811D01*
G01X5105169Y-438727D01*
G01X5103784Y-433647D01*
G01X5102398Y-429491D01*
G01X5101013Y-425796D01*
G01X5099627Y-422564D01*
G01X5098242Y-419793D01*
G01X5094547Y-413327D01*
G01X5092700Y-410556D01*
G01X5090391Y-407786D01*
G01X5088544Y-405476D01*
G01X5085773Y-402244D01*
G01X5081154Y-398549D01*
G01X5077460Y-395778D01*
G01X5075151Y-393931D01*
G01X5071918Y-392084D01*
G01X5068224Y-390236D01*
G01X5064991Y-388851D01*
G01X5061296Y-387466D01*
G01X5052984Y-384694D01*
G01X5047442Y-383309D01*
G01X5042362Y-382386D01*
G01X5034973Y-381462D01*
G01X5014191Y-381000D01*
G01X4994794Y-381000D01*
G01X4966162Y-381000D01*
G01X4966162Y-379153D01*
G01X4956464Y-377767D01*
G01X4950922Y-376844D01*
G01X4944456Y-375920D01*
G01X4940300Y-375458D01*
G01X4940300Y-368069D01*
G01X4992947Y-368069D01*
G01X5046980Y-368531D01*
G01X5056216Y-369454D01*
G01X5061758Y-370378D01*
G01X5068224Y-371302D01*
G01X5075613Y-373149D01*
G01X5080693Y-374534D01*
G01X5085311Y-376382D01*
G01X5089006Y-377767D01*
G01X5092238Y-379153D01*
G01X5095933Y-381000D01*
G01X5100089Y-383309D01*
G01X5104246Y-386080D01*
G01X5108864Y-389313D01*
G01X5112558Y-392084D01*
G01X5117176Y-396702D01*
G01X5119947Y-399934D01*
G01X5124566Y-406400D01*
G01X5126874Y-410094D01*
G01X5128722Y-413789D01*
G01X5130569Y-417946D01*
G01X5132416Y-422564D01*
G01X5135649Y-432262D01*
G01X5137496Y-441498D01*
G01X5138420Y-448887D01*
G01X5138882Y-464127D01*
G01X5138420Y-481214D01*
G01X5137496Y-488604D01*
G01X5136573Y-494146D01*
G01X5135649Y-499226D01*
G01X5134264Y-504767D01*
G01X5131493Y-513080D01*
G01X5130107Y-516774D01*
G01X5128722Y-519546D01*
G01X5126874Y-522778D01*
G01X5124566Y-527396D01*
G01X5121794Y-531553D01*
G01X5119486Y-534786D01*
G01X5115791Y-539404D01*
G01X5108864Y-546331D01*
G01X5106554Y-548178D01*
G01X5100089Y-552796D01*
G01X5096856Y-554644D01*
G01X5093162Y-556491D01*
G01X5089006Y-558338D01*
G01X5084387Y-560186D01*
G01X5080693Y-561571D01*
G01X5076074Y-562956D01*
G01X5071918Y-564342D01*
G01X5060834Y-566189D01*
G01X5051598Y-567113D01*
G01X5009573Y-567574D01*
G37*
G36*
G01X5359977Y-569999D02*
G01X5358246Y-568960D01*
G01X5356860Y-566189D01*
G01X5353166Y-557876D01*
G01X5344853Y-538480D01*
G01X5341158Y-530167D01*
G01X5338387Y-523702D01*
G01X5334693Y-515389D01*
G01X5326380Y-495993D01*
G01X5322686Y-487680D01*
G01X5317144Y-474749D01*
G01X5313449Y-466436D01*
G01X5307907Y-453506D01*
G01X5302366Y-441036D01*
G01X5300056Y-437342D01*
G01X5295900Y-435956D01*
G01X5289896Y-434571D01*
G01X5286664Y-433647D01*
G01X5286664Y-427182D01*
G01X5352242Y-427182D01*
G01X5352242Y-429491D01*
G01X5351318Y-433186D01*
G01X5349702Y-434340D01*
G01X5346700Y-435033D01*
G01X5331460Y-437804D01*
G01X5330652Y-438727D01*
G01X5330998Y-440574D01*
G01X5332846Y-445193D01*
G01X5336540Y-453506D01*
G01X5340234Y-462742D01*
G01X5343929Y-471054D01*
G01X5345776Y-475673D01*
G01X5347624Y-479829D01*
G01X5349009Y-483524D01*
G01X5353166Y-493222D01*
G01X5355013Y-497378D01*
G01X5356860Y-501996D01*
G01X5358707Y-506153D01*
G01X5360554Y-510771D01*
G01X5364249Y-519084D01*
G01X5367944Y-528320D01*
G01X5369791Y-532014D01*
G01X5370714Y-532592D01*
G01X5371638Y-531553D01*
G01X5373486Y-527858D01*
G01X5391958Y-481676D01*
G01X5393806Y-477520D01*
G01X5408584Y-440574D01*
G01X5408699Y-438612D01*
G01X5407198Y-437342D01*
G01X5401656Y-435956D01*
G01X5390573Y-434109D01*
G01X5387340Y-433647D01*
G01X5387340Y-427182D01*
G01X5438140Y-427182D01*
G01X5438140Y-430414D01*
G01X5437563Y-433070D01*
G01X5435831Y-434571D01*
G01X5432136Y-435956D01*
G01X5428904Y-436418D01*
G01X5426133Y-437342D01*
G01X5424286Y-440113D01*
G01X5422438Y-444269D01*
G01X5420591Y-448887D01*
G01X5418744Y-453044D01*
G01X5417358Y-456738D01*
G01X5410431Y-472902D01*
G01X5408584Y-477058D01*
G01X5406736Y-481676D01*
G01X5404889Y-485833D01*
G01X5403042Y-490451D01*
G01X5401194Y-494607D01*
G01X5399809Y-498302D01*
G01X5395653Y-508000D01*
G01X5393806Y-512156D01*
G01X5391958Y-516774D01*
G01X5390111Y-520931D01*
G01X5388264Y-525549D01*
G01X5384569Y-533862D01*
G01X5380874Y-543098D01*
G01X5377180Y-551411D01*
G01X5373486Y-560647D01*
G01X5371638Y-564804D01*
G01X5370253Y-568498D01*
G01X5368521Y-569884D01*
G01X5364249Y-570346D01*
G01X5359977Y-569999D01*
G37*
G36*
G01X5225242Y-570346D02*
G01X5216929Y-569884D01*
G01X5213234Y-568960D01*
G01X5206769Y-568036D01*
G01X5203074Y-567113D01*
G01X5198918Y-565727D01*
G01X5194300Y-563880D01*
G01X5189682Y-561571D01*
G01X5185526Y-558800D01*
G01X5182293Y-556029D01*
G01X5177674Y-551411D01*
G01X5175827Y-549102D01*
G01X5173980Y-546331D01*
G01X5172133Y-543098D01*
G01X5170286Y-539404D01*
G01X5168438Y-534324D01*
G01X5167053Y-530167D01*
G01X5165206Y-521854D01*
G01X5164282Y-514466D01*
G01X5163820Y-499226D01*
G01X5164282Y-481214D01*
G01X5164678Y-478444D01*
G01X5190606Y-478444D01*
G01X5191067Y-484909D01*
G01X5221086Y-485371D01*
G01X5250642Y-485371D01*
G01X5250642Y-483062D01*
G01X5250180Y-479367D01*
G01X5249718Y-474749D01*
G01X5249256Y-467360D01*
G01X5248333Y-461818D01*
G01X5247409Y-457200D01*
G01X5246024Y-452582D01*
G01X5244176Y-448887D01*
G01X5242329Y-445654D01*
G01X5240944Y-443346D01*
G01X5239096Y-441036D01*
G01X5236787Y-439189D01*
G01X5233554Y-437342D01*
G01X5229860Y-435956D01*
G01X5223856Y-435494D01*
G01X5217853Y-435956D01*
G01X5213696Y-436880D01*
G01X5210002Y-438266D01*
G01X5206769Y-440113D01*
G01X5203536Y-442422D01*
G01X5201227Y-444731D01*
G01X5198918Y-447502D01*
G01X5197071Y-450273D01*
G01X5195686Y-453044D01*
G01X5194300Y-456738D01*
G01X5192914Y-460894D01*
G01X5191991Y-464589D01*
G01X5191067Y-471054D01*
G01X5190606Y-478444D01*
G01X5190606Y-478444D01*
G01X5164678Y-478444D01*
G01X5165206Y-474749D01*
G01X5166129Y-470131D01*
G01X5167976Y-462742D01*
G01X5169362Y-458586D01*
G01X5170747Y-454891D01*
G01X5172133Y-452120D01*
G01X5175827Y-445654D01*
G01X5177213Y-443346D01*
G01X5179060Y-441036D01*
G01X5181369Y-438727D01*
G01X5185987Y-435033D01*
G01X5189220Y-432262D01*
G01X5192914Y-429953D01*
G01X5197071Y-428106D01*
G01X5206769Y-424873D01*
G01X5213234Y-423949D01*
G01X5220162Y-423487D01*
G01X5228936Y-423949D01*
G01X5235402Y-424873D01*
G01X5240020Y-425796D01*
G01X5244176Y-427182D01*
G01X5249256Y-429029D01*
G01X5252951Y-430876D01*
G01X5255722Y-432724D01*
G01X5260340Y-436418D01*
G01X5262649Y-438727D01*
G01X5265420Y-442422D01*
G01X5268191Y-446578D01*
G01X5270038Y-449811D01*
G01X5271424Y-453506D01*
G01X5272809Y-457662D01*
G01X5274194Y-462742D01*
G01X5275118Y-467360D01*
G01X5276042Y-478444D01*
G01X5276504Y-488142D01*
G01X5276504Y-496454D01*
G01X5234478Y-496454D01*
G01X5191067Y-497378D01*
G01X5190144Y-499226D01*
G01X5190606Y-506153D01*
G01X5191067Y-514466D01*
G01X5191991Y-520007D01*
G01X5192914Y-524626D01*
G01X5193838Y-528320D01*
G01X5195224Y-532014D01*
G01X5197071Y-535709D01*
G01X5198918Y-538942D01*
G01X5200766Y-541713D01*
G01X5203074Y-544484D01*
G01X5207693Y-548178D01*
G01X5210464Y-550026D01*
G01X5213696Y-551411D01*
G01X5217391Y-552796D01*
G01X5221086Y-553720D01*
G01X5224318Y-554182D01*
G01X5233093Y-554644D01*
G01X5241867Y-554182D01*
G01X5246024Y-553720D01*
G01X5252027Y-553258D01*
G01X5258493Y-552334D01*
G01X5264034Y-551411D01*
G01X5270962Y-550026D01*
G01X5270962Y-554182D01*
G01X5270384Y-557646D01*
G01X5268653Y-559724D01*
G01X5264034Y-562033D01*
G01X5259878Y-563880D01*
G01X5254798Y-565727D01*
G01X5250180Y-567113D01*
G01X5240944Y-568960D01*
G01X5232631Y-569884D01*
G01X5225242Y-570346D01*
G37*
G04 Text End*

G04 PolygonModel Start*
G54D17*
G01X660306Y-3873500D02*
G01X532201Y-3873500D01*
G01X1360307Y-3873500D02*
G01X824095Y-3873500D01*
G01X1029602Y-3268701D02*
G01X1638303Y-3268701D01*
G01X1638303Y-3268701D02*
G01X1638303Y-3873500D01*
G01X1638303Y-3873500D02*
G01X1524097Y-3873500D01*
G01X532201Y-3268701D02*
G01X854799Y-3268701D01*
G01X532201Y-3313725D02*
G01X228603Y-3313725D01*
G01X228603Y-3313725D02*
G01X228603Y-3822700D01*
G01X228603Y-3822700D02*
G01X532201Y-3822700D01*
G01X532201Y-3268701D02*
G01X532201Y-3868699D01*
G01X4592998Y-4952799D02*
G01X4592998Y-5092799D01*
G01X4592998Y-5092799D02*
G01X5032997Y-5092799D01*
G01X5032997Y-5092799D02*
G01X5032997Y-4952799D01*
G01X5032997Y-4952799D02*
G01X4592998Y-4952799D01*
G01X5502996Y-5105913D02*
G01X5502996Y-5172799D01*
G01X5502996Y-5172799D02*
G01X4402999Y-5172799D01*
G01X5502996Y-4905913D02*
G01X5502996Y-4939685D01*
G01X5502996Y-4705914D02*
G01X5502996Y-4739686D01*
G01X5502996Y-4505914D02*
G01X5502996Y-4539686D01*
G01X5502996Y-4305915D02*
G01X5502996Y-4339687D01*
G01X4402999Y-4139689D02*
G01X4402999Y-4072801D01*
G01X4402999Y-4072801D02*
G01X5502996Y-4072801D01*
G01X5502996Y-4072801D02*
G01X5502996Y-4139687D01*
G01X4402999Y-4339689D02*
G01X4402999Y-4305917D01*
G01X4402999Y-4539689D02*
G01X4402999Y-4505917D01*
G01X4402999Y-4739688D02*
G01X4402999Y-4705916D01*
G01X4402999Y-4939688D02*
G01X4402999Y-4905916D01*
G01X4402999Y-5172799D02*
G01X4402999Y-5105916D01*
G01X665302Y-1879600D02*
G01X2358898Y-1879600D01*
G01X2358898Y-101600D02*
G01X665302Y-101600D01*
G01X462102Y-304800D02*
G01X462102Y-1676400D01*
G01X2572258Y-1676400D02*
G01X2572258Y-304800D01*
G54D18*
G01X622300Y-1879600D02*
G01X622300Y-1625600D01*
G01X622300Y-1625600D02*
G01X2400300Y-1625600D01*
G01X2400300Y-1625600D02*
G01X2400300Y-1879600D01*
G01X2400300Y-1879600D02*
G01X622300Y-1879600D01*
G01X2400300Y-101600D02*
G01X2400300Y-355600D01*
G01X2400300Y-355600D02*
G01X622300Y-355600D01*
G01X622300Y-355600D02*
G01X622300Y-101600D01*
G01X622300Y-101600D02*
G01X2400300Y-101600D01*
G54D17*
G01X665302Y-101600D02*
G03X462102Y-304800I0J-203200D01*
G01X462102Y-1676400D02*
G03X665302Y-1879600I203200J0D01*
G01X2572258Y-304800D02*
G03X2358898Y-101600I-208269J-5069D01*
G01X2358898Y-1879600D02*
G03X2572258Y-1676400I5091J208269D01*
G54D16*
G01X4523008Y-2788143D02*
G01X4823008Y-2788143D01*
G01X4823008Y-2788143D02*
G01X4823008Y-2488143D01*
G01X4823008Y-2488143D02*
G01X4523008Y-2488143D01*
G01X4523008Y-2488143D02*
G01X4523008Y-2788143D01*
G36*
G01X4558589Y-2793143D02*
G01X4590508Y-2793143D01*
G01X4590508Y-2887324D01*
G01X4558589Y-2887324D01*
G01X4558589Y-2793143D01*
G37*
G36*
G01X4624746Y-2793143D02*
G01X4655508Y-2793143D01*
G01X4655508Y-2887078D01*
G01X4624746Y-2887078D01*
G01X4624746Y-2793143D01*
G37*
G36*
G01X4690736Y-2793143D02*
G01X4720508Y-2793143D01*
G01X4720508Y-2886327D01*
G01X4690736Y-2886327D01*
G01X4690736Y-2793143D01*
G37*
G36*
G01X4756255Y-2793143D02*
G01X4785508Y-2793143D01*
G01X4785508Y-2885362D01*
G01X4756255Y-2885362D01*
G01X4756255Y-2793143D01*
G37*
G36*
G01X4756500Y-2393143D02*
G01X4785508Y-2393143D01*
G01X4785508Y-2481278D01*
G01X4756500Y-2481278D01*
G01X4756500Y-2393143D01*
G37*
G36*
G01X4690684Y-2393143D02*
G01X4720508Y-2393143D01*
G01X4720508Y-2481586D01*
G01X4690684Y-2481586D01*
G01X4690684Y-2393143D01*
G37*
G36*
G01X4624813Y-2393143D02*
G01X4655508Y-2393143D01*
G01X4655508Y-2480876D01*
G01X4624813Y-2480876D01*
G01X4624813Y-2393143D01*
G37*
G36*
G01X4558888Y-2393143D02*
G01X4590508Y-2393143D01*
G01X4590508Y-2480911D01*
G01X4558888Y-2480911D01*
G01X4558888Y-2393143D01*
G37*
G54D17*
G01X3515411Y-2603500D02*
G02X2885389Y-2603500I-315011J0D01*
G01X2885389Y-2603500D02*
G02X3515411Y-2603500I315011J0D01*
G36*
G01X3429000Y-2832100D02*
G01X3428911Y-2386515D01*
G01X3429000Y-2386607D01*
G02X3521266Y-2609354I-222745J-222747D01*
G01X3521266Y-2609355D01*
G02X3429000Y-2832100I-315011J2D01*
G37*
G01X3566208Y-4073243D02*
G02X2936187Y-4073243I-315011J0D01*
G01X2936187Y-4073243D02*
G02X3566208Y-4073243I315011J0D01*
G36*
G01X3479797Y-4301843D02*
G01X3479709Y-3856259D01*
G01X3479797Y-3856350D01*
G02X3572063Y-4079098I-222745J-222747D01*
G01X3572063Y-4079098D01*
G02X3479797Y-4301843I-315011J2D01*
G37*

G04 Rect Start*
G01X2235200Y-393700D02*
G01X2235200Y-1587500D01*
G01X1193800Y-1587500D01*
G01X1193800Y-393700D01*
G01X2235200Y-393700D01*
G01X1054100Y-536524D02*
G01X1054100Y-1447800D01*
G01X317500Y-1447800D01*
G01X317500Y-536524D01*
G01X1054100Y-536524D01*
G01X2552700Y-838200D02*
G01X2552700Y-1143000D01*
G01X2298700Y-1143000D01*
G01X2298700Y-838200D01*
G01X2552700Y-838200D01*
G36*
G01X1028700Y-375920D02*
G01X1028700Y-482600D01*
G01X965200Y-482600D01*
G01X965200Y-375920D01*
G01X1028700Y-375920D01*
G37*
G36*
G01X796950Y-381000D02*
G01X796950Y-474040D01*
G01X698500Y-474040D01*
G01X698500Y-381000D01*
G01X796950Y-381000D01*
G37*
G36*
G01X2548026Y-1244575D02*
G01X2548026Y-1546987D01*
G01X2291029Y-1546987D01*
G01X2291029Y-1244575D01*
G01X2548026Y-1244575D01*
G37*
G36*
G01X2555697Y-431800D02*
G01X2555697Y-734212D01*
G01X2298700Y-734212D01*
G01X2298700Y-431800D01*
G01X2555697Y-431800D01*
G37*
G04 Rect End*

G04 Circle Start*
G01X5572006Y-5162799D02*
G03X5673987Y-5162799I50991J0D01*
G03X5572006Y-5162799I-50990J0D01*
G54D19*
G01X4538008Y-2753143D02*
G03X4578008Y-2753143I20000J0D01*
G03X4538008Y-2753143I-20000J0D01*
G54D17*
G01X2885389Y-2603500D02*
G03X3515411Y-2603500I315011J0D01*
G03X2885389Y-2603500I-315011J0D01*
G01X2936187Y-4073243D02*
G03X3566208Y-4073243I315011J0D01*
G03X2936187Y-4073243I-315011J0D01*
G04 Circle End*

M02*

