G04 Layer: BottomLayer*
G04 EasyEDA Pro v3.2.148, 2026-09-07 21:29:23*
G04 Gerber Generator version 0.3*
G04 Scale: 100 percent, Rotated: No, Reflected: No*
G04 Dimensions in millimeters*
G04 Leading zeros omitted, absolute positions, 4 integers and 5 decimals*
G04 Generated by one-click*
G04 Object Configs: Pad,Via,Track,Text,Image,Dimension,BoardOutline,BoardCutout,CopperFilled,SolidRegion,FPCStiffener,Line,PlaneZone,ComponentProperty,ComponentSilkscreen,TearDrop*
G04 Layer Configs: 1,2,3,4,5,6,7,8,9,10,11,13,14,56*
G04 Copper Areas: 0*
%FSLAX45Y45*%
%MOMM*%
%ADD10O,1.8X1.2*%
%ADD11C,1.49987*%
%ADD12C,1.5*%
%ADD13C,0.61*%
%ADD14C,0.254*%
%ADD15C,0.3449*%
G75*


G04 Pad Start*
G54D10*
G01X742201Y-3808705D03*
G01X1442199Y-3808705D03*
G01X942200Y-3328695D03*
G54D11*
G01X749300Y-1752600D03*
G01X2019300Y-228600D03*
G01X1765300Y-228600D03*
G01X1511300Y-228600D03*
G01X1257300Y-228600D03*
G01X1003300Y-228600D03*
G01X749300Y-228600D03*
G01X2273300Y-228600D03*
G01X1003300Y-1752600D03*
G01X1257300Y-1752600D03*
G01X1511300Y-1752600D03*
G01X1765300Y-1752600D03*
G01X2019300Y-1752600D03*
G01X2273300Y-1752600D03*
G54D12*
G01X3325393Y-2603500D03*
G01X3075407Y-2603500D03*
G01X3376191Y-4073243D03*
G01X3126204Y-4073243D03*
G04 Pad End*

G04 Via Start*
G54D13*
G01X1377507Y-336609D03*
G01X4781100Y-4565601D03*
G01X2179315Y-1035048D03*
G01X2026916Y-1187448D03*
G04 Via End*

G04 Track Start*
G54D14*
G01X3325393Y-2603505D02*
G01X3075414Y-2603505D01*
G01X3376183Y-4073242D02*
G01X3111654Y-3808712D01*
G01X1442197Y-3808712D01*
G01X1377507Y-336609D02*
G01X1365307Y-336609D01*
G01X1257297Y-228599D01*
G01X4781100Y-4565601D02*
G01X4578301Y-4565601D01*
G01X1765296Y-1752596D01*
G01X2026916Y-1187448D02*
G01X2026916Y-1744977D01*
G01X2019296Y-1752596D01*
G01X2026916Y-1187448D02*
G01X1962146Y-1187448D01*
G01X1003298Y-228600D01*
G01X2179315Y-1035048D02*
G01X2026916Y-1187448D01*
G04 Track End*

M02*

